# xmcd CD database file
#
# Track frame offsets:
#	150
#	14540
#	29137
#	44445
#	61902
#	78425
#	93442
#	106140
#	121762
#	137642
#	153985
#	171135
#	185462
#
# Disc length: 2689 seconds
#
# Revision: 0
# Processed by: cddbd v1.5.1PL0 Copyright (c) Steve Scherf et al.
# Submitted via: CDex 1.51
#
DISCID=a50a7f0d
DTITLE=Ricardo Vilas - Cine Ipanema
DYEAR=2002
DGENRE=Jazz
TTITLE0=Cine Ipanema
TTITLE1=Nova Garota
TTITLE2=Santa Natureza
TTITLE3=1968
TTITLE4=Back In Bahia
TTITLE5=Lar Buraco Lar
TTITLE6=Posto 9
TTITLE7=Asas Pra Voar
TTITLE8=Meu Avião
TTITLE9=Sopa de Água na Boca
TTITLE10=Certos Momentos
TTITLE11=Pra Baden and Vinícius
TTITLE12=Canoa do Amor
EXTD=YEAR: 2002
EXTT0=
EXTT1=
EXTT2=
EXTT3=
EXTT4=
EXTT5=
EXTT6=
EXTT7=
EXTT8=
EXTT9=
EXTT10=
EXTT11=
EXTT12=
PLAYORDER=
